<svg width="12" height="16" viewBox="0 0 12 16" fill="none" xmlns="http://www.w3.org/2000/svg">
<path d="M6 .04c-.462.42-.744.972-.744 1.577.027 1.328.23 2.654.248 3.98.037 1.238-.425 2.4-.988 3.534-.187.313-.39.62-.592.927l-.595-.096c-.537-.086-.886-.505-.779-.936.094-.377.508-.641.969-.641l.217.019-.485-3.248C3.093 3.71 2.164 2.44.797 1.618a6.585 6.585 0 0 0-.744-.386v11.53H3.37c.248 1.079.99 2.022 2.03 2.667.248.137.456.317.605.528a1.8 1.8 0 0 1 .604-.528c1.042-.646 1.783-1.588 2.03-2.667h3.317V1.232c-.26.114-.509.244-.744.386-1.369.825-2.296 2.093-2.454 3.538l-.485 3.248.217-.02c.461.002.875.264.969.642.107.43-.242.85-.779.936l-.595.096c-.203-.307-.405-.613-.592-.927-.563-1.133-1.025-2.296-.989-3.534.018-1.33.221-2.655.248-3.98 0-.605-.281-1.155-.744-1.577H6ZM1.041 2.894c.642.604 1.073 1.357 1.2 2.186l.397 2.678c-.508.203-.893.576-1.038 1.027h-.562v-5.89l.003-.001Zm9.918 0v5.89h-.562c-.145-.45-.53-.823-1.038-1.026l.396-2.679c.129-.828.56-1.582 1.2-2.187l.004.002ZM6 8.279c.266.699.633 1.365 1.088 1.98-.433.106-.81.312-1.088.588a2.32 2.32 0 0 0-1.088-.588A8.325 8.325 0 0 0 6 8.28ZM1.041 9.582h.562c.177.55.712.983 1.389 1.135l.476.087a3.57 3.57 0 0 0-.197 1.166H1.039V9.582h.002Zm9.357 0h.562v2.388H8.73c0-.404-.07-.795-.198-1.166l.477-.088c.68-.151 1.213-.585 1.388-1.135h.002Zm-5.96 1.405c.602.068 1.065.481 1.065.982h-1.24c0-.34.063-.67.175-.982Zm3.122 0c.112.312.175.64.175.982h-1.24c0-.502.464-.914 1.065-.982Zm-3.183 1.779h1.127v1.675c-.545-.46-.942-1.034-1.127-1.675Zm2.119 0h1.127c-.183.64-.58 1.216-1.127 1.675v-1.675Z" fill="#FFD500"/>
</svg>
